<?xml version="1.0" encoding="utf-8"?><svg version="1.1" id="Layer_1" xmlns="http://www.w3.org/2000/svg" xmlns:xlink="http://www.w3.org/1999/xlink" x="0px" y="0px" viewBox="0 0 122.88 110.37" style="enable-background:new 0 0 122.88 110.37" xml:space="preserve"><style type="text/css">.st0{fill-rule:evenodd;clip-rule:evenodd;}</style><g><path class="st0" d="M61.92,0c10.42,0,18.86,8.44,18.86,18.86c0,10.42-8.44,18.86-18.86,18.86c-10.42,0-18.86-8.44-18.86-18.86 C43.07,8.44,51.51,0,61.92,0L61.92,0z M30.19,47.55c2.66-3.81,6.29-4.13,11.61-4.75h39.53c6.14,1.12,10.47,2.19,13.42,7.29 l23.21,31.74c2.65,3.62,4.93,5.88,4.92,10.7c-0.01,3.94-1.91,7.56-5.04,9.59c-4.02,2.62-7.09,1.85-11.15,0.43l-15.93-5.56v13.38 H31.64V97.78l-18.5,5.44c-6.04,1.31-10.35-0.93-12.1-5.14c-2.92-6.99,0.82-11.77,4.65-16.93L30.19,47.55L30.19,47.55z M32.19,76.02 V53.35l29.38,9.97l29.74-10.7V76.2c-20.53-4.3-21.39,14.31-8.7,20.31l-21.4,6.71l-20.67-7.25C53.58,89.97,50.92,70.71,32.19,76.02 L32.19,76.02z"/></g></svg>